# File created by Blade
# Date/Time:  Thu Sep 25 18:39:44 2014
# Frame Rate: 120.000 fps
#------------------------------------------------------
:FULLY-SPECIFIED
:DEGREES
1060
root -1.040786 33.178205 -2.117465 7.513975 3.941340 -0.805778
Spine -12.555075 4.036434 -3.054250
Head 1.245565 6.457543 11.002159
LeftShoulder -18.969368 -7.336247 42.761367
LeftArm 166.498151 -38.325790 -112.942117
LeftForeArm -39.996937 0.000000 144.109022
LeftHand -5.164639 0.000000 -17.339318
LeftHandThumb1 -26.253704 0.000000 33.147579
RightShoulder -18.902313 29.753028 -53.061905
RightArm 57.266913 42.573826 45.309717
RightForeArm 60.433333 -0.000000 102.546987
RightHand 2.556796 -0.000000 6.343919
RightHandThumb1 -24.326973 -0.000000 -32.862282
LeftUpLeg -0.220338 6.337519 2.116901
LeftLeg -1.609296 -0.000000 0.000000
LeftFoot -7.786855 1.266687 -11.266056
LeftToeBase 9.847063 -0.000000 -0.000000
RightUpLeg -0.861548 -7.338984 0.457588
RightLeg 0.379894 -0.000000 -0.000000
RightFoot -6.562338 -1.672728 0.544241
RightToeBase -1.015234 -0.000000 0.000000
1061
root -1.039366 33.177623 -2.117927 7.515568 3.935350 -0.808364
Spine -12.562083 4.050004 -3.050622
Head 1.247022 6.459450 10.981125
LeftShoulder -18.952607 -7.357292 42.755153
LeftArm 166.498825 -38.354572 -112.930058
LeftForeArm -40.002223 0.000000 144.098146
LeftHand -5.132291 0.000000 -17.347069
LeftHandThumb1 -26.253704 0.000000 33.147579
RightShoulder -18.923274 29.744829 -53.083308
RightArm 57.263682 42.561456 45.322328
RightForeArm 60.429281 -0.000000 102.552321
RightHand 2.565689 -0.000000 6.354030
RightHandThumb1 -24.326973 -0.000000 -32.862282
LeftUpLeg -0.224381 6.328618 2.110093
LeftLeg -1.595061 -0.000000 0.000000
LeftFoot -7.832652 1.306404 -11.317902
LeftToeBase 9.915719 -0.000000 -0.000000
RightUpLeg -0.866483 -7.342869 0.457441
RightLeg 0.384950 -0.000000 -0.000000
RightFoot -6.565996 -1.681713 0.533149
RightToeBase -1.045835 -0.000000 0.000000
1062
root -1.038808 33.177616 -2.118115 7.515976 3.916412 -0.814705
Spine -12.569672 4.079201 -3.055103
Head 1.254793 6.456796 10.978848
LeftShoulder -18.942365 -7.418227 42.777001
LeftArm 166.442820 -38.398080 -112.886272
LeftForeArm -39.996425 0.000000 144.103743
LeftHand -5.165155 -0.000000 -17.340221
LeftHandThumb1 -26.253704 0.000000 33.147579
RightShoulder -18.948003 29.738263 -53.090012
RightArm 57.264001 42.543357 45.334730
RightForeArm 60.432270 -0.000000 102.557109
RightHand 2.557894 -0.000000 6.333573
RightHandThumb1 -24.326973 -0.000000 -32.862282
LeftUpLeg -0.222599 6.337925 2.113996
LeftLeg -1.596648 -0.000000 0.000000
LeftFoot -7.843751 1.307107 -11.336427
LeftToeBase 9.948564 -0.000000 -0.000000
RightUpLeg -0.872582 -7.334017 0.460311
RightLeg 0.390725 -0.000000 -0.000000
RightFoot -6.572982 -1.648941 0.538892
RightToeBase -1.000544 -0.000000 0.000000
1063
root -1.037615 33.177172 -2.118517 7.517751 3.898859 -0.817927
Spine -12.577828 4.087173 -3.052423
Head 1.258982 6.485653 10.968360
LeftShoulder -18.943049 -7.441990 42.782346
LeftArm 166.411860 -38.439720 -112.860211
LeftForeArm -40.015333 -0.000000 144.102232
LeftHand -5.152567 -0.000000 -17.309457
LeftHandThumb1 -26.253704 0.000000 33.147579
RightShoulder -18.947718 29.735305 -53.087109
RightArm 57.279102 42.545046 45.343053
RightForeArm 60.429595 -0.000000 102.551949
RightHand 2.543749 -0.000000 6.348763
RightHandThumb1 -24.326973 -0.000000 -32.862282
LeftUpLeg -0.224169 6.352798 2.112795
LeftLeg -1.593376 -0.000000 0.000000
LeftFoot -7.843633 1.305107 -11.324731
LeftToeBase 9.884278 -0.000000 -0.000000
RightUpLeg -0.879906 -7.328771 0.461147
RightLeg 0.396879 -0.000000 -0.000000
RightFoot -6.568505 -1.647237 0.531533
RightToeBase -1.035644 -0.000000 0.000000
1064
root -1.036116 33.177028 -2.118835 7.516542 3.876342 -0.821407
Spine -12.582758 4.110877 -3.051792
Head 1.267151 6.479070 10.951510
LeftShoulder -18.944531 -7.479932 42.795580
LeftArm 166.363263 -38.474287 -112.826676
LeftForeArm -39.998848 -0.000000 144.103826
LeftHand -5.137394 -0.000000 -17.312315
LeftHandThumb1 -26.253704 0.000000 33.147579
RightShoulder -18.958502 29.740493 -53.096959
RightArm 57.275840 42.534191 45.336524
RightForeArm 60.409030 0.000000 102.548492
RightHand 2.493138 -0.000000 6.328791
RightHandThumb1 -24.326973 -0.000000 -32.862282
LeftUpLeg -0.219263 6.351411 2.108842
LeftLeg -1.596728 -0.000000 0.000000
LeftFoot -7.844082 1.342204 -11.304864
LeftToeBase 9.859673 -0.000000 -0.000000
RightUpLeg -0.885552 -7.333096 0.459887
RightLeg 0.405064 -0.000000 -0.000000
RightFoot -6.568655 -1.625928 0.525638
RightToeBase -1.026986 -0.000000 0.000000
1065
root -1.034333 33.176739 -2.119827 7.515637 3.862607 -0.822811
Spine -12.587223 4.114765 -3.043385
Head 1.285583 6.472406 10.921086
LeftShoulder -18.945332 -7.507591 42.796017
LeftArm 166.322123 -38.494156 -112.796186
LeftForeArm -40.011073 -0.000000 144.100812
LeftHand -5.157640 -0.000000 -17.302066
LeftHandThumb1 -26.253704 0.000000 33.147579
RightShoulder -18.955990 29.742603 -53.107298
RightArm 57.272780 42.530378 45.326732
RightForeArm 60.406518 0.000000 102.550555
RightHand 2.495611 -0.000000 6.298250
RightHandThumb1 -24.326973 -0.000000 -32.862282
LeftUpLeg -0.220938 6.348081 2.106285
LeftLeg -1.589782 -0.000000 0.000000
LeftFoot -7.859679 1.346522 -11.323996
LeftToeBase 9.883616 -0.000000 -0.000000
RightUpLeg -0.891972 -7.319180 0.456628
RightLeg 0.416144 -0.000000 -0.000000
RightFoot -6.573338 -1.639935 0.512945
RightToeBase -1.055736 -0.000000 0.000000
1066
root -1.034680 33.176585 -2.120475 7.512877 3.843558 -0.835964
Spine -12.590846 4.142939 -3.037512
Head 1.297010 6.463753 10.915641
LeftShoulder -18.933036 -7.573097 42.812610
LeftArm 166.252623 -38.532539 -112.748907
LeftForeArm -39.994093 -0.000000 144.097252
LeftHand -5.167497 -0.000000 -17.307328
LeftHandThumb1 -26.253704 0.000000 33.147579
RightShoulder -18.968041 29.712311 -53.111461
RightArm 57.277499 42.537107 45.333035
RightForeArm 60.395442 0.000000 102.555991
RightHand 2.502324 -0.000000 6.293660
RightHandThumb1 -24.326973 -0.000000 -32.862282
LeftUpLeg -0.219585 6.358733 2.120405
LeftLeg -1.582840 -0.000000 0.000000
LeftFoot -7.875717 1.337351 -11.352913
LeftToeBase 9.892280 -0.000000 -0.000000
RightUpLeg -0.889379 -7.317431 0.462651
RightLeg 0.408546 -0.000000 -0.000000
RightFoot -6.560416 -1.590173 0.543625
RightToeBase -1.094837 -0.000000 0.000000
1067
root -1.033309 33.176802 -2.121173 7.513960 3.820461 -0.839661
Spine -12.595742 4.163163 -3.034023
Head 1.303206 6.458465 10.892238
LeftShoulder -18.948664 -7.606918 42.816422
LeftArm 166.194246 -38.534519 -112.705348
LeftForeArm -40.016534 -0.000000 144.091564
LeftHand -5.191518 0.000000 -17.262810
LeftHandThumb1 -26.253704 0.000000 33.147579
RightShoulder -18.880064 29.562821 -53.028049
RightArm 57.367081 42.721187 45.339576
RightForeArm 60.409885 -0.000000 102.580706
RightHand 2.498190 0.000000 6.264638
RightHandThumb1 -24.326973 -0.000000 -32.862282
LeftUpLeg -0.220493 6.348776 2.120088
LeftLeg -1.578696 -0.000000 0.000000
LeftFoot -7.875851 1.366964 -11.335134
LeftToeBase 9.882271 -0.000000 -0.000000
RightUpLeg -0.895191 -7.293536 0.461341
RightLeg 0.410920 -0.000000 -0.000000
RightFoot -6.562368 -1.583601 0.551500
RightToeBase -1.071020 -0.000000 0.000000
1068
root -1.031345 33.176685 -2.122117 7.508214 3.807175 -0.837589
Spine -12.592524 4.192078 -3.027683
Head 1.317248 6.441801 10.837493
LeftShoulder -18.944502 -7.641749 42.802038
LeftArm 166.152558 -38.530663 -112.679442
LeftForeArm -40.016993 -0.000000 144.097508
LeftHand -5.226430 -0.000000 -17.268286
LeftHandThumb1 -26.253704 0.000000 33.147579
RightShoulder -18.904767 29.484473 -53.017384
RightArm 57.446373 42.744223 45.359125
RightForeArm 60.413077 0.000000 102.564265
RightHand 2.498666 -0.000000 6.217321
RightHandThumb1 -24.326973 -0.000000 -32.862282
LeftUpLeg -0.221298 6.360857 2.112979
LeftLeg -1.564146 -0.000000 0.000000
LeftFoot -7.890419 1.374810 -11.305150
LeftToeBase 9.904455 -0.000000 -0.000000
RightUpLeg -0.896958 -7.298333 0.454354
RightLeg 0.420036 -0.000000 -0.000000
RightFoot -6.563461 -1.572067 0.556563
RightToeBase -1.078500 -0.000000 0.000000
1069
root -1.030717 33.176284 -2.122630 7.506973 3.791477 -0.841444
Spine -12.594379 4.203322 -3.038044
Head 1.313993 6.447921 10.862096
LeftShoulder -18.944102 -7.671784 42.830564
LeftArm 166.126837 -38.532461 -112.667222
LeftForeArm -40.025663 -0.000000 144.082848
LeftHand -5.235160 0.000000 -17.232086
LeftHandThumb1 -26.253704 0.000000 33.147579
RightShoulder -18.892504 29.497648 -53.015845
RightArm 57.396446 42.754738 45.325013
RightForeArm 60.467921 -0.000000 102.579462
RightHand 2.572683 -0.000000 6.354401
RightHandThumb1 -24.326973 -0.000000 -32.862282
LeftUpLeg -0.218086 6.369082 2.123394
LeftLeg -1.569613 -0.000000 0.000000
LeftFoot -7.868526 1.324970 -11.271336
LeftToeBase 9.844580 -0.000000 -0.000000
RightUpLeg -0.899075 -7.286452 0.455204
RightLeg 0.422523 -0.000000 -0.000000
RightFoot -6.570151 -1.568222 0.558619
RightToeBase -1.054766 -0.000000 0.000000
1070
root -1.028567 33.175921 -2.123590 7.506341 3.778777 -0.839261
Spine -12.592266 4.227447 -3.024167
Head 1.298353 6.460799 10.798110
LeftShoulder -18.899605 -7.648411 42.785056
LeftArm 166.228816 -38.523713 -112.736960
LeftForeArm -40.077458 -0.000000 144.064516
LeftHand -5.251978 -0.000000 -17.227297
LeftHandThumb1 -26.253704 0.000000 33.147579
RightShoulder -18.936911 29.480664 -53.056755
RightArm 57.404732 42.730670 45.332839
RightForeArm 60.461288 -0.000000 102.575335
RightHand 2.558369 -0.000000 6.263170
RightHandThumb1 -24.326973 -0.000000 -32.862282
LeftUpLeg -0.221129 6.351537 2.108775
LeftLeg -1.556184 -0.000000 0.000000
LeftFoot -7.911622 1.385462 -11.353111
LeftToeBase 9.905415 -0.000000 -0.000000
RightUpLeg -0.903657 -7.285114 0.447169
RightLeg 0.429025 -0.000000 -0.000000
RightFoot -6.576132 -1.554144 0.536608
RightToeBase -1.047173 -0.000000 0.000000
